<svg width="78" height="19" viewBox="0 0 78 19" fill="none" xmlns="http://www.w3.org/2000/svg">
<path d="M9.77445 5.73079C9.94107 5.73079 10.0988 5.76352 10.2475 5.82898C10.3963 5.89444 10.5272 5.9837 10.6403 6.09677C10.7534 6.20389 10.8397 6.33183 10.8992 6.48061C10.9646 6.62343 10.9974 6.77518 10.9974 6.93585V13.6574C10.9974 13.83 10.9646 13.9907 10.8992 14.1395C10.8397 14.2882 10.7534 14.4162 10.6403 14.5233C10.5272 14.6364 10.3963 14.7256 10.2475 14.7911C10.0988 14.8565 9.94107 14.8893 9.77445 14.8893H1.23189C1.05931 14.8893 0.89864 14.8565 0.749866 14.7911C0.601093 14.7256 0.470173 14.6364 0.357105 14.5233C0.244038 14.4162 0.154774 14.2882 0.0893135 14.1395C0.0298042 13.9907 4.95911e-05 13.83 4.95911e-05 13.6574V6.93585C4.95911e-05 6.77518 0.0298042 6.62343 0.0893135 6.48061C0.154774 6.33183 0.244038 6.20389 0.357105 6.09677C0.470173 5.9837 0.601093 5.89444 0.749866 5.82898C0.89864 5.76352 1.05931 5.73079 1.23189 5.73079V4.28471C1.23189 3.67772 1.28247 3.11238 1.38364 2.5887C1.48481 2.06502 1.68714 1.61275 1.99063 1.23189C2.30008 0.845078 2.73153 0.544556 3.28496 0.330322C3.84435 0.110138 4.57929 4.57764e-05 5.48978 4.57764e-05C6.10273 4.57764e-05 6.63236 0.0506287 7.07868 0.151794C7.53095 0.247009 7.91478 0.386856 8.23018 0.571335C8.54558 0.749863 8.80445 0.970047 9.00678 1.23189C9.20911 1.48778 9.36681 1.7764 9.47988 2.09775C9.59295 2.41315 9.67031 2.75533 9.71196 3.12428C9.75362 3.49324 9.77445 3.88005 9.77445 4.28471V5.73079ZM3.05288 4.28471V5.68616H7.94454V4.28471C7.94454 3.83244 7.92371 3.45158 7.88205 3.14214C7.84635 2.82674 7.74816 2.57382 7.58748 2.38339C7.42681 2.19296 7.18282 2.05609 6.85552 1.97278C6.52822 1.88947 6.07297 1.84781 5.48978 1.84781C4.90659 1.84781 4.45134 1.88947 4.12404 1.97278C3.79674 2.05609 3.55275 2.19296 3.39208 2.38339C3.23735 2.57382 3.14214 2.82674 3.10643 3.14214C3.07073 3.45158 3.05288 3.83244 3.05288 4.28471ZM14.2823 4.57764e-05C14.5858 4.57764e-05 14.8893 0.0417023 15.1928 0.125015C15.5022 0.208328 15.7968 0.327347 16.0765 0.482071C16.3562 0.630844 16.618 0.818298 16.862 1.04443C17.106 1.26462 17.3172 1.51456 17.4958 1.79425C17.6743 2.07394 17.8142 2.38042 17.9153 2.71367C18.0224 3.04692 18.076 3.401 18.076 3.77591C18.076 4.69235 17.8766 5.46597 17.4779 6.09677C17.0852 6.72757 16.5258 7.21257 15.7998 7.55177V9.33705L15.3177 9.83693V10.5867L15.7998 11.0866V11.5954L15.3177 12.1042V12.3631L15.7998 12.8719V13.3718C15.5974 13.6574 15.4011 13.9103 15.2106 14.1305C15.1273 14.2257 15.044 14.318 14.9607 14.4072C14.8774 14.5025 14.7941 14.5858 14.7107 14.6572C14.6334 14.7286 14.556 14.7851 14.4787 14.8268C14.4072 14.8684 14.3418 14.8893 14.2823 14.8893C14.2109 14.8893 14.1276 14.8387 14.0323 14.7375C13.9431 14.6423 13.8508 14.5144 13.7556 14.3537C13.6664 14.199 13.5771 14.0264 13.4878 13.836C13.4045 13.6396 13.3272 13.4491 13.2557 13.2647C13.1903 13.0742 13.1367 12.8987 13.0951 12.738C13.0534 12.5773 13.0326 12.4524 13.0326 12.3631V7.55177C12.6993 7.36729 12.3929 7.15306 12.1132 6.90907C11.8394 6.65913 11.5984 6.37944 11.3901 6.06999C11.1878 5.75459 11.0301 5.40944 10.917 5.03453C10.804 4.65367 10.7474 4.23413 10.7474 3.77591C10.7474 3.21057 10.8456 2.69582 11.042 2.23164C11.2443 1.76747 11.5091 1.37173 11.8364 1.04443C12.1697 0.711182 12.5476 0.455292 12.9701 0.276764C13.3926 0.0922852 13.83 4.57764e-05 14.2823 4.57764e-05ZM14.2198 12.3452V7.90883H13.5771V12.3452L13.9074 12.8451L14.2198 12.3452ZM11.774 3.24925H17.0673C17.0673 3.05882 17.0019 2.83566 16.8709 2.57977C16.74 2.31793 16.5526 2.07097 16.3086 1.83888C16.0646 1.6068 15.77 1.41042 15.4249 1.24974C15.0857 1.08907 14.7048 1.00873 14.2823 1.00873C13.8657 1.00873 13.4997 1.08907 13.1843 1.24974C12.8749 1.41042 12.613 1.6068 12.3988 1.83888C12.1905 2.06502 12.0328 2.30901 11.9257 2.57085C11.8245 2.82674 11.774 3.05287 11.774 3.24925ZM24.262 13.6664V11.8989C24.4643 12.0775 24.7053 12.2381 24.985 12.381C25.2707 12.5238 25.5682 12.6458 25.8777 12.7469C26.1931 12.8421 26.5085 12.9165 26.8239 12.9701C27.1393 13.0237 27.4309 13.0504 27.6986 13.0504C28.621 13.0504 29.3084 12.8808 29.7606 12.5416C30.2189 12.1965 30.448 11.7025 30.448 11.0598C30.448 10.7147 30.3706 10.4142 30.2159 10.1583C30.0671 9.90239 29.8588 9.6703 29.591 9.46202C29.3232 9.24779 29.0049 9.04546 28.6359 8.85503C28.2729 8.65865 27.8801 8.45334 27.4576 8.23911C27.0113 8.01297 26.5947 7.78386 26.2079 7.55177C25.8211 7.31969 25.4849 7.0638 25.1993 6.7841C24.9136 6.50441 24.6875 6.18901 24.5208 5.83791C24.3602 5.48085 24.2798 5.06429 24.2798 4.58821C24.2798 4.00502 24.4078 3.49919 24.6637 3.07072C24.9196 2.63631 25.2558 2.27925 25.6724 1.99956C26.0889 1.71986 26.562 1.51158 27.0916 1.37471C27.6272 1.23784 28.1717 1.1694 28.7252 1.1694C29.9868 1.1694 30.9062 1.32115 31.4834 1.62465V3.31174C30.7277 2.78806 29.7577 2.52621 28.5734 2.52621C28.2461 2.52621 27.9188 2.56192 27.5915 2.63333C27.2642 2.69879 26.9726 2.80888 26.7167 2.96361C26.4608 3.11833 26.2526 3.31769 26.0919 3.56168C25.9312 3.80566 25.8509 4.10321 25.8509 4.45432C25.8509 4.78162 25.9104 5.06429 26.0294 5.30232C26.1544 5.54036 26.3359 5.75757 26.5739 5.95395C26.812 6.15033 27.1006 6.34076 27.4398 6.52524C27.7849 6.70972 28.1807 6.91205 28.627 7.13223C29.0852 7.35837 29.5196 7.59641 29.9302 7.84634C30.3409 8.09628 30.7009 8.373 31.0103 8.6765C31.3198 8.98 31.5638 9.31622 31.7423 9.68518C31.9268 10.0541 32.019 10.4767 32.019 10.9527C32.019 11.5835 31.894 12.1191 31.6441 12.5595C31.4001 12.9939 31.0669 13.348 30.6444 13.6217C30.2278 13.8955 29.7458 14.0918 29.1983 14.2109C28.6508 14.3358 28.0736 14.3983 27.4666 14.3983C27.2642 14.3983 27.0143 14.3805 26.7167 14.3448C26.4192 14.315 26.1157 14.2674 25.8062 14.2019C25.4968 14.1424 25.2022 14.068 24.9225 13.9788C24.6488 13.8836 24.4286 13.7794 24.262 13.6664ZM35.1254 2.7226C34.8636 2.7226 34.6404 2.63333 34.4559 2.4548C34.2714 2.27628 34.1792 2.05014 34.1792 1.7764C34.1792 1.50266 34.2714 1.27652 34.4559 1.09799C34.6404 0.913513 34.8636 0.821274 35.1254 0.821274C35.3932 0.821274 35.6193 0.913513 35.8038 1.09799C35.9942 1.27652 36.0895 1.50266 36.0895 1.7764C36.0895 2.03824 35.9942 2.2614 35.8038 2.44588C35.6193 2.63036 35.3932 2.7226 35.1254 2.7226ZM35.8395 14.1841H34.3756V5.04346H35.8395V14.1841ZM46.6047 13.4521C46.6047 16.8084 44.998 18.4866 41.7845 18.4866C40.6538 18.4866 39.666 18.2724 38.8209 17.8439V16.38C39.8504 16.9513 40.8323 17.2369 41.7666 17.2369C44.0161 17.2369 45.1408 16.0408 45.1408 13.6485V12.6487H45.1051C44.4088 13.8151 43.3615 14.3983 41.963 14.3983C40.8264 14.3983 39.9099 13.9937 39.2137 13.1843C38.5234 12.369 38.1782 11.2771 38.1782 9.90834C38.1782 8.35515 38.5502 7.12033 39.294 6.20389C40.0438 5.28745 41.0674 4.82922 42.3647 4.82922C43.5965 4.82922 44.51 5.32315 45.1051 6.311H45.1408V5.04346H46.6047V13.4521ZM45.1408 10.0512V8.70328C45.1408 7.97726 44.8938 7.35539 44.3999 6.83766C43.9119 6.31993 43.302 6.06107 42.57 6.06107C41.6655 6.06107 40.9573 6.39134 40.4455 7.0519C39.9338 7.7065 39.6779 8.62592 39.6779 9.81015C39.6779 10.8278 39.9218 11.643 40.4098 12.256C40.9038 12.863 41.5554 13.1665 42.3647 13.1665C43.1859 13.1665 43.8524 12.8749 44.3642 12.2917C44.8819 11.7085 45.1408 10.9617 45.1408 10.0512ZM57.1557 14.1841H55.6918V8.97107C55.6918 7.03107 54.9836 6.06107 53.5673 6.06107C52.8354 6.06107 52.2284 6.33778 51.7463 6.89122C51.2703 7.43871 51.0322 8.13199 51.0322 8.97107V14.1841H49.5683V5.04346H51.0322V6.56094H51.0679C51.7582 5.40646 52.758 4.82922 54.0672 4.82922C55.067 4.82922 55.8316 5.15355 56.3613 5.8022C56.8909 6.4449 57.1557 7.37622 57.1557 8.59616V14.1841ZM66.6356 14.1841H65.1359V1.38364H66.6356V14.1841ZM77.4008 14.1841H75.9369V8.97107C75.9369 7.03107 75.2287 6.06107 73.8124 6.06107C73.0804 6.06107 72.4734 6.33778 71.9914 6.89122C71.5153 7.43871 71.2773 8.13199 71.2773 8.97107V14.1841H69.8134V5.04346H71.2773V6.56094H71.313C72.0033 5.40646 73.0031 4.82922 74.3123 4.82922C75.312 4.82922 76.0767 5.15355 76.6063 5.8022C77.136 6.4449 77.4008 7.37622 77.4008 8.59616V14.1841Z" fill="black"/>
</svg>
