<svg width="22" height="38" viewBox="0 0 22 38" fill="none" xmlns="http://www.w3.org/2000/svg">
<path d="M11.4167 16.4583C6.6875 15.2292 5.16667 13.9583 5.16667 11.9792C5.16667 9.70833 7.27083 8.125 10.7917 8.125C14.5 8.125 15.875 9.89583 16 12.5H20.6042C20.4583 8.91667 18.2708 5.625 13.9167 4.5625V0H7.66667V4.5C3.625 5.375 0.375 8 0.375 12.0208C0.375 16.8333 4.35417 19.2292 10.1667 20.625C15.375 21.875 16.4167 23.7083 16.4167 25.6458C16.4167 27.0833 15.3958 29.375 10.7917 29.375C6.5 29.375 4.8125 27.4583 4.58333 25H0C0.25 29.5625 3.66667 32.125 7.66667 32.9792V37.5H13.9167V33.0208C17.9792 32.25 21.2083 29.8958 21.2083 25.625C21.2083 19.7083 16.1458 17.6875 11.4167 16.4583Z" fill="black"/>
</svg>
